<svg version="1.1" id="Layer_1" xmlns="http://www.w3.org/2000/svg" xmlns:xlink="http://www.w3.org/1999/xlink" x="0px" y="0px" viewBox="0 0 195 38.005" enable-background="new 0 0 195 38.005" reserveAspectRatio="xMidYMid meet" xml:space="preserve">
<g id="Elipsa_1_kopia_3_">
	<g>
		<path fill="#67ADDF" d="M46,18.5C46,8.352,37.819,0.122,27.688,0.01V0H8.967v18.67h0.009c0.062,6.749,3.748,12.62,9.198,15.801V37
			h9.344v-0.002C37.728,36.979,46,28.705,46,18.5z M27.467,22.785c-1.663,0-3.088-0.964-3.79-2.354
			c-0.778,2.088-2.784,3.578-5.144,3.578c-3.034,0-5.493-2.459-5.493-5.492s2.459-5.492,5.493-5.492c2.36,0,4.366,1.49,5.144,3.579
			c0.703-1.391,2.127-2.354,3.79-2.354c2.353,0,4.261,1.911,4.261,4.268C31.728,20.874,29.819,22.785,27.467,22.785z"/>
	</g>
</g>
<g id="Elipsa_1_3_">
	<g>
		<path fill="#FFFFFF" d="M18.756,0.012V0H0v18.67h0.009C0.101,28.808,8.348,37,18.516,37c10.227,0,18.517-8.283,18.517-18.5
			C37.032,8.363,28.871,0.142,18.756,0.012z M18.516,22.785c-2.362,0-4.277-1.911-4.277-4.269c0-2.356,1.915-4.268,4.277-4.268
			c2.363,0,4.279,1.911,4.279,4.268C22.795,20.874,20.879,22.785,18.516,22.785z"/>
	</g>
</g>
<g id="web_pl_3_">
	<g>
		<path fill="#FFFFFF" d="M115.293,27.617h-0.613l-4.298-15.382h-2.817l-4.298,15.382h-0.577l-3.648-15.743h-2.708l4.298,18.096
			h4.514l3.828-14.151l3.829,14.151h4.515l4.297-18.096h-2.708L115.293,27.617z M132.449,11.512c-5.033,0-7.549,3.173-7.549,9.519
			c0,3.185,0.542,5.532,1.625,7.039c1.084,1.509,2.926,2.263,5.526,2.263c1.95,0,4.298-0.193,7.042-0.579l-0.072-2.136l-1.047,0.108
			c-1.854,0.146-3.679,0.218-5.472,0.218c-1.794,0-3.052-0.482-3.774-1.448c-0.722-0.965-1.083-2.448-1.083-4.451h11.918
			l0.145-2.063c0-2.919-0.603-5.061-1.806-6.424C136.698,12.194,134.881,11.512,132.449,11.512z M127.609,19.872
			c0.023-2.123,0.439-3.667,1.246-4.633c0.807-0.965,2.01-1.447,3.611-1.447s2.757,0.459,3.467,1.375
			c0.711,0.917,1.065,2.485,1.065,4.705H127.609z M152.457,11.512c-1.71,0-3.479,0.423-5.31,1.267V3.983h-2.672v25.95l1.011,0.108
			c2.335,0.193,4.009,0.29,5.02,0.29c3.251,0,5.484-0.706,6.7-2.117c1.216-1.412,1.823-3.854,1.823-7.329s-0.487-5.905-1.462-7.293
			C156.592,12.206,154.889,11.512,152.457,11.512z M155.147,26.296c-0.759,1.074-2.317,1.611-4.677,1.611
			c-0.65,0-1.758-0.061-3.323-0.182V14.986l0.723-0.253c1.468-0.531,2.901-0.797,4.298-0.797c1.541,0,2.611,0.513,3.214,1.538
			c0.602,1.026,0.903,2.817,0.903,5.375S155.905,25.223,155.147,26.296z M180.59,11.512c-1.782,0-3.588,0.556-5.417,1.665v-1.303
			H172.5v26.131h2.709v-8.071c1.228,0.266,2.576,0.398,4.045,0.398c2.816,0,4.833-0.729,6.049-2.19
			c1.216-1.459,1.824-3.866,1.824-7.22s-0.518-5.761-1.553-7.221C184.539,12.242,182.877,11.512,180.59,11.512z M183.209,26.314
			c-0.783,1.11-2.149,1.665-4.1,1.665c-0.891,0-2.191-0.133-3.9-0.398V15.385l0.686-0.362c0.481-0.241,1.138-0.482,1.969-0.724
			s1.607-0.362,2.329-0.362c1.373,0,2.414,0.531,3.124,1.593s1.065,2.847,1.065,5.356S183.99,25.205,183.209,26.314z M192.291,3.983
			V29.97H195V3.983H192.291z"/>
	</g>
</g>
<g id="c_3_">
	<g>
		<path fill="#67ADDF" d="M93.133,27.581l-4.262,0.326c-2.168,0-3.594-0.519-4.28-1.557c-0.687-1.037-1.029-2.877-1.029-5.52
			c0-2.642,0.367-4.451,1.101-5.429c0.734-0.978,2.125-1.466,4.172-1.466c0.915,0,2.335,0.108,4.262,0.326l0.108-2.208l-0.866-0.108
			c-1.902-0.29-3.251-0.435-4.045-0.435c-2.697,0-4.623,0.694-5.779,2.081c-1.155,1.388-1.733,3.801-1.733,7.238
			c0,3.438,0.536,5.882,1.607,7.329c1.071,1.448,3.016,2.172,5.833,2.172c1.107,0,2.781-0.169,5.02-0.507L93.133,27.581z"/>
	</g>
</g>
<g id="b_3_">
	<g>
		<path fill="#67ADDF" d="M75.084,13.593c-0.975-1.387-2.678-2.081-5.109-2.081c-1.711,0-3.48,0.423-5.31,1.267V3.983h-2.673v25.95
			l1.012,0.108c2.335,0.193,4.009,0.29,5.02,0.29c3.251,0,5.483-0.706,6.699-2.117c1.217-1.412,1.824-3.854,1.824-7.329
			S76.06,14.98,75.084,13.593z M72.664,26.296c-0.758,1.074-2.316,1.611-4.677,1.611c-0.649,0-1.758-0.061-3.322-0.182V14.986
			l0.722-0.253c1.469-0.531,2.901-0.797,4.298-0.797c1.541,0,2.612,0.513,3.215,1.538c0.602,1.026,0.903,2.817,0.903,5.375
			S73.424,25.223,72.664,26.296z"/>
	</g>
</g>
<g id="_x2E__3_">
	<g>
		<path fill="#67ADDF" d="M166.542,26.912c-0.401-0.4-0.886-0.601-1.452-0.601c-0.578,0-1.068,0.2-1.471,0.601
			c-0.4,0.401-0.602,0.89-0.602,1.468c0,0.565,0.201,1.051,0.602,1.457c0.402,0.407,0.893,0.61,1.471,0.61
			c0.566,0,1.051-0.203,1.452-0.61c0.401-0.406,0.603-0.892,0.603-1.457C167.145,27.802,166.943,27.313,166.542,26.912z"/>
	</g>
</g>
</svg>
